<svg xmlns="http://www.w3.org/2000/svg" viewBox="0 0 2096 1764" width="2096" height="1764" font-family="Poppins, Outfit, 'Helvetica Neue', Arial, sans-serif">
<rect width="2096" height="1764" fill="#F6F3FB"/>
<g id="header-logo"><path fill="#401E97" fill-rule="evenodd" d="M392.6 138.9L396.5 138.4L400.4 139.7L404.8 145.4L404.8 150.2L403.9 152.4L401.7 155.0L397.4 157.2L391.3 156.3L388.2 153.7L386.4 150.2L386.4 145.8L387.8 142.8ZM237.1 138.4L241.0 138.9L243.7 140.2L246.7 143.2L248.0 147.2L247.6 151.1L246.3 153.7L240.2 157.6L236.2 157.6L233.2 156.3L231.0 154.6L228.8 150.2L228.8 146.3L231.0 141.9L233.6 139.7ZM324.9 130.6L338.0 165.5L345.0 165.5L352.4 146.3L359.4 165.1L366.8 165.5L379.5 131.0L369.9 130.6L362.9 151.1L355.4 131.0L349.8 130.6L348.9 131.4L342.8 149.3L341.5 150.7L334.9 131.0ZM314.8 130.6L314.8 165.5L324.0 165.5L324.0 130.6ZM234.9 130.1L227.9 132.7L223.1 137.1L220.1 143.7L219.6 150.2L221.8 157.2L226.2 162.4L231.9 165.5L240.6 166.4L247.6 164.2L254.1 158.1L255.9 154.1L256.3 143.2L252.8 136.7L247.6 132.3L241.0 130.1ZM161.6 130.6L161.6 165.5L170.3 165.5L170.3 144.5L171.6 141.5L175.5 138.9L180.3 138.9L184.3 143.2L184.7 165.5L193.4 165.5L193.4 144.5L194.3 141.9L196.5 139.7L199.6 138.4L204.4 139.3L207.4 143.2L207.4 165.5L216.6 165.5L216.6 141.5L214.4 135.4L210.0 131.4L205.7 130.1L200.4 130.1L195.6 131.9L191.3 135.4L187.8 131.9L183.8 130.1L177.3 130.1L174.2 131.4L170.7 134.5L170.3 130.6L169.9 131.4L169.0 130.6ZM384.3 132.7L379.9 137.5L377.3 144.5L377.7 153.3L381.6 160.7L386.0 164.2L390.8 165.9L398.7 165.5L403.9 162.0L404.8 162.4L405.2 165.5L413.5 165.5L414.0 130.6L404.8 130.6L404.4 134.1L401.3 131.4L396.5 129.7L389.5 130.1ZM128.4 122.7L134.1 123.1L140.6 126.2L145.0 131.0L147.6 137.5L147.2 144.5L144.1 150.7L138.9 155.5L132.7 157.6L126.2 157.2L119.2 153.7L114.4 148.0L112.7 142.8L112.7 137.1L115.7 130.1L122.3 124.4ZM316.6 114.4L314.0 117.9L314.4 121.8L317.5 124.4L320.9 124.4L322.7 123.6L324.4 121.4L324.4 117.5L323.6 115.7L320.9 114.0ZM124.0 114.0L114.0 118.3L109.2 122.7L106.1 127.1L103.1 135.8L103.1 144.5L103.9 148.0L107.9 155.9L115.3 162.9L124.4 166.4L134.9 166.4L138.9 165.5L147.2 161.1L154.1 152.8L157.2 143.7L156.8 134.1L152.0 124.0L145.0 117.5L140.6 115.3L133.6 113.5ZM283.4 113.1L272.9 116.2L269.4 118.3L264.6 123.1L259.8 132.7L258.9 142.4L261.6 152.0L264.2 156.3L269.4 161.6L278.2 165.9L289.1 166.8L293.9 165.9L300.0 163.3L307.0 156.8L310.5 148.9L311.3 138.0L310.9 136.7L286.5 136.7L286.5 145.4L300.4 145.4L300.9 147.6L299.1 151.1L294.3 155.5L289.5 157.2L282.5 157.2L276.4 154.6L271.2 148.9L269.0 142.4L269.4 135.8L273.4 128.4L276.8 125.3L284.3 122.7L293.0 124.0L299.1 128.4L306.5 122.7L303.5 119.2L296.1 114.8L291.7 113.5Z"/><path fill="#FF0000" fill-rule="evenodd" d="M420.9 155.5L417.9 158.1L417.5 160.7L420.1 164.6L423.1 165.1L426.2 163.3L427.1 158.9L424.9 155.9Z"/><path fill="#555" fill-rule="evenodd" d="M235.8 138.9L240.6 138.9L242.8 139.7L245.8 142.4L247.6 145.8L247.6 150.7L246.3 153.3L242.3 156.8L239.3 157.6L235.4 157.2L232.7 155.9L229.7 152.4L228.8 149.8L228.8 146.7L230.1 143.2ZM232.3 130.6L226.6 133.6L223.1 137.1L220.5 141.9L219.6 151.1L221.0 155.5L223.1 159.4L226.6 162.9L230.6 165.1L234.9 166.4L241.0 166.4L245.8 165.1L249.8 162.9L253.7 158.9L255.9 154.6L255.9 141.5L253.3 137.1L247.2 131.9L241.9 130.1ZM161.1 130.6L161.1 165.5L170.3 165.5L170.3 145.4L171.2 142.4L173.8 139.7L176.0 138.9L179.9 138.9L181.7 139.7L184.3 143.7L184.3 165.5L193.4 165.5L193.4 145.0L194.8 141.5L198.7 138.9L203.0 138.9L204.8 139.7L207.4 143.7L207.4 165.5L216.6 165.5L216.6 140.6L215.3 136.7L210.9 131.9L206.5 130.1L199.6 130.1L196.1 131.4L191.3 135.4L187.3 131.4L181.7 129.7L175.5 130.6L171.2 134.1L170.3 133.6L170.3 130.6ZM126.6 123.1L133.6 123.1L138.4 124.9L143.2 128.8L147.2 136.2L147.2 143.7L145.0 148.9L139.7 154.6L133.6 157.2L127.1 157.2L121.4 155.0L117.0 151.5L113.1 144.1L112.7 138.0L115.3 131.0L121.0 125.3ZM123.6 114.0L118.3 115.7L112.7 119.2L105.7 127.5L103.5 133.2L102.6 138.4L103.9 148.5L108.7 157.2L116.6 163.8L127.1 166.8L137.5 165.9L146.7 161.6L153.3 154.6L157.2 144.5L156.8 133.6L154.6 127.9L151.1 122.7L143.7 116.6L134.1 113.5Z"/></g>
<text x="105" y="195" font-size="25" fill="#111">LOGO OVERVIEW</text>
<text x="1991" y="156" font-size="26" fill="#6b6785" text-anchor="end">5 variants · 1 shared palette</text>
<line x1="105" y1="228" x2="1991" y2="228" stroke="#DCD6F2" stroke-width="3"/>
<rect x="106" y="272" width="592" height="609" rx="28" fill="#fff" stroke="#E4E0F5" stroke-width="2.5"/><rect x="752" y="272" width="592" height="609" rx="28" fill="#fff" stroke="#E4E0F5" stroke-width="2.5"/><rect x="1398" y="272" width="592" height="609" rx="28" fill="#fff" stroke="#E4E0F5" stroke-width="2.5"/><rect x="106" y="936" width="915" height="391" rx="28" fill="#fff" stroke="#E4E0F5" stroke-width="2.5"/><rect x="1075" y="936" width="915" height="391" rx="28" fill="#fff" stroke="#E4E0F5" stroke-width="2.5"/>
<g id="primary-icon"><path fill="#401E97" fill-rule="evenodd" d="M369.9 351.1L358.5 353.3L347.1 356.8L329.7 365.1L320.9 370.7L311.8 378.2L297.8 393.4L290.4 404.8L283.8 417.5L278.2 434.0L275.5 450.2L275.5 469.9L276.4 477.3L281.6 497.8L285.1 506.1L292.1 518.8L299.1 528.4L306.5 536.7L320.1 548.0L338.4 558.5L359.4 565.5L379.9 568.1L403.9 566.8L416.6 564.2L426.2 561.1L441.9 553.7L458.1 541.5L470.3 527.1L479.9 511.3L484.3 502.6L488.6 490.8L493.0 468.5L493.0 447.6L492.6 446.7L424.9 446.7L420.5 437.1L414.8 429.7L408.7 424.4L400.9 420.1L389.1 417.0L376.8 417.5L368.1 420.1L358.5 425.8L351.5 432.7L347.1 439.3L343.2 450.2L342.3 460.7L343.7 469.4L348.5 480.8L355.0 489.1L360.2 493.4L369.4 498.2L379.9 500.9L388.6 500.9L395.6 499.5L404.4 496.1L410.9 491.7L416.1 486.4L439.7 486.4L440.2 488.6L434.0 502.2L426.2 511.8L416.6 518.8L404.8 523.6L392.6 525.7L373.8 525.3L359.8 521.4L352.8 517.9L345.4 512.6L334.5 500.9L327.9 489.1L324.4 478.1L322.7 465.9L323.1 449.8L327.1 433.6L334.1 420.5L345.0 408.7L352.4 403.5L360.2 399.5L368.1 396.9L381.6 394.7L396.5 395.2L408.7 397.8L420.9 403.0L431.4 410.5L441.0 420.9L470.3 391.7L466.8 386.9L454.1 374.7L444.1 367.2L433.2 361.1L415.7 354.6L399.5 351.1L390.4 350.2Z"/><path fill="#000" fill-rule="evenodd" d="M383.0 417.0L376.0 417.9L367.7 420.5L359.4 425.3L352.4 431.9L348.5 437.5L344.1 447.6L342.8 454.1L342.8 463.3L344.1 470.3L348.5 480.3L357.2 490.8L364.2 495.6L371.2 498.7L384.7 500.9L394.7 499.5L403.0 496.5L410.0 492.1L415.7 486.4L388.6 486.4L379.9 485.6L379.9 446.7L424.0 446.3L424.0 445.0L417.9 433.6L408.3 424.4L396.5 418.8Z"/><path fill="#AE61E8" fill-rule="evenodd" d="M380.8 446.7L380.8 485.6L416.1 486.0L421.4 479.0L425.8 466.8L426.2 453.3L424.9 447.1Z"/></g><text x="148" y="800" font-size="25" fill="#111">Primary icon</text>
<g id="giwa-ai"><path fill="#401E97" fill-rule="evenodd" d="M984.2 486.9L990.4 486.9L1004.8 489.9L1005.6 497.4L1008.3 504.8L1015.7 515.7L1026.2 524.0L1031.8 526.6L1041.9 529.2L1044.5 547.6L1046.7 532.7L1048.0 529.2L1054.5 528.8L1063.3 526.2L1072.0 521.4L1079.4 514.4L1103.5 514.8L1103.9 515.7L1100.8 524.0L1095.6 533.2L1086.4 542.8L1080.8 546.7L1068.5 551.9L1058.0 554.1L1041.5 554.6L1032.7 553.3L1022.7 550.2L1013.9 545.8L1003.9 538.0L996.5 529.2L990.8 519.6L986.9 508.7L984.7 496.9ZM1035.3 376.8L1015.7 380.8L1004.8 384.7L990.8 391.7L974.6 403.5L960.2 418.8L950.2 434.0L944.9 444.5L940.1 457.6L936.6 476.4L936.2 492.6L937.1 503.0L938.8 513.1L942.8 526.2L951.1 543.6L958.0 554.1L964.6 562.0L980.8 576.4L1000.4 587.8L1019.6 594.3L1040.1 597.4L1064.2 596.5L1084.2 592.1L1093.8 588.6L1104.3 583.4L1117.0 574.7L1130.5 560.7L1144.9 538.0L1153.2 517.4L1157.2 497.4L1157.2 474.7L1088.2 474.2L1082.1 462.0L1073.3 452.8L1062.4 446.7L1054.5 444.5L1048.4 444.1L1047.6 443.2L1044.5 424.4L1041.5 444.1L1030.5 447.1L1025.3 449.8L1019.2 454.1L1014.4 458.9L1007.8 469.4L1005.2 477.7L1004.8 482.1L998.7 483.8L985.1 485.6L984.7 479.0L986.0 470.7L989.5 459.4L993.4 451.5L1003.0 439.3L1010.9 432.7L1020.1 427.5L1027.9 424.4L1041.0 421.8L1057.6 421.8L1065.9 423.1L1077.3 426.6L1086.4 431.4L1094.7 437.5L1104.3 448.0L1134.0 418.3L1127.0 409.6L1119.6 402.6L1108.7 394.3L1097.3 387.8L1079.0 380.8L1068.1 378.2L1054.5 376.4Z"/><path fill="#000" fill-rule="evenodd" d="M1048.4 528.8L1055.0 528.4L1062.8 526.2L1070.3 522.3L1078.6 514.8L1051.9 514.4ZM1004.8 490.4L1007.4 501.7L1010.0 507.4L1015.2 514.8L1026.2 523.6L1035.3 527.5L1041.0 528.4L1037.5 514.4L1032.3 504.3L1023.5 496.5L1013.1 492.1ZM1040.6 445.0L1034.9 445.8L1027.5 448.9L1021.4 452.8L1014.8 458.9L1008.3 469.4L1006.1 475.5L1005.2 481.6L1014.4 479.5L1021.8 476.4L1027.0 472.9L1031.8 468.1L1036.6 459.8ZM1048.4 444.5L1050.2 452.4L1053.7 462.0L1058.9 469.9L1062.8 473.3L1087.3 473.8L1082.9 463.7L1078.1 457.6L1073.3 453.3L1062.8 447.1L1055.9 445.0Z"/><path fill="#AE61E8" fill-rule="evenodd" d="M1044.5 424.4L1040.1 451.5L1037.5 459.4L1032.3 468.5L1027.0 473.8L1016.6 479.5L1005.6 482.5L987.3 485.6L984.7 485.1L984.7 482.1L984.7 486.4L1006.5 489.5L1014.4 491.7L1025.3 496.9L1032.7 503.9L1037.1 511.3L1040.1 520.5L1044.9 547.6L1046.7 532.7L1051.1 514.4L1057.2 503.5L1065.0 496.5L1075.5 491.7L1090.8 488.2L1104.8 486.4L1103.9 485.6L1089.0 483.4L1073.3 479.5L1065.0 475.5L1058.0 469.9L1051.9 459.8L1049.3 451.9Z"/></g><text x="798" y="810" font-size="35" fill="#111">Giwa AI</text>
<g id="og-tools"><path fill="#401E97" fill-rule="evenodd" d="M1658.0 365.9L1648.4 367.7L1647.1 372.9L1646.7 382.5L1645.4 383.8L1640.6 384.7L1627.5 389.5L1614.4 396.9L1603.9 388.2L1600.8 387.3L1589.0 396.5L1579.9 407.4L1580.3 411.3L1588.6 420.9L1589.0 422.7L1580.7 438.8L1577.2 452.8L1576.4 454.1L1563.3 455.0L1559.8 456.3L1558.5 462.9L1558.0 474.7L1559.3 486.0L1561.1 487.8L1577.2 489.1L1578.1 489.9L1581.6 502.6L1590.8 519.2L1579.9 532.3L1579.9 535.8L1593.8 551.1L1599.5 555.4L1602.1 555.9L1616.1 544.5L1617.4 544.5L1631.8 551.9L1644.9 555.4L1646.2 556.8L1647.5 573.8L1649.7 576.4L1670.7 577.3L1678.1 576.4L1680.3 574.2L1681.6 557.2L1682.5 556.3L1690.3 555.0L1699.9 551.9L1712.2 545.8L1713.9 546.3L1724.0 555.0L1727.0 555.9L1734.9 550.2L1748.0 535.8L1748.0 532.3L1741.0 524.4L1737.9 519.6L1744.5 507.0L1748.8 492.1L1751.0 477.3L1751.5 458.5L1698.6 458.5L1692.1 446.7L1685.1 440.2L1679.9 437.1L1669.8 434.0L1660.2 434.0L1650.2 437.1L1643.2 441.5L1638.4 446.3L1633.1 455.0L1630.9 462.4L1630.5 471.2L1631.8 478.6L1635.8 486.9L1641.0 493.4L1650.6 500.0L1659.8 502.6L1670.2 502.6L1677.2 500.9L1686.4 495.6L1691.2 490.8L1710.0 491.2L1710.4 493.4L1706.5 502.6L1698.6 512.2L1693.0 516.6L1680.3 521.8L1672.0 523.1L1659.3 523.1L1653.2 522.3L1644.9 519.6L1638.8 516.6L1632.3 511.8L1625.3 504.3L1619.6 495.2L1616.5 486.9L1614.4 474.7L1614.8 459.8L1617.4 449.3L1621.8 439.7L1631.4 428.4L1640.1 422.3L1650.6 417.9L1659.8 416.1L1674.2 416.1L1683.3 417.9L1694.3 422.3L1703.0 428.4L1711.3 437.1L1734.0 414.4L1732.7 411.8L1721.8 400.9L1712.2 393.9L1703.9 389.5L1702.1 387.3L1693.0 384.3L1682.0 382.5L1681.2 381.6L1680.7 372.0L1679.4 367.7L1670.7 365.9Z"/><path fill="#000" fill-rule="evenodd" d="M1658.0 434.9L1651.0 437.1L1646.2 439.7L1641.4 443.7L1636.6 449.3L1633.6 455.0L1631.4 462.0L1631.4 474.7L1633.1 480.8L1636.6 487.8L1644.0 495.6L1651.9 500.0L1657.1 501.7L1662.4 502.6L1671.1 502.2L1683.3 497.4L1689.9 491.2L1662.0 490.8L1661.1 489.9L1661.1 458.9L1662.0 458.1L1696.9 458.1L1697.3 457.2L1694.3 450.6L1690.8 445.8L1681.6 438.4L1669.4 434.5Z"/><path fill="#AE61E8" fill-rule="evenodd" d="M1662.4 458.5L1662.0 489.9L1693.0 490.8L1691.2 490.4L1694.7 486.0L1699.1 474.7L1699.5 465.5L1698.2 458.5Z"/></g><text x="1457" y="818" font-size="35" fill="#111">OG tools</text>
<g id="giwa-wordmark"><path fill="#401E97" fill-rule="evenodd" d="M708.3 1108.7L712.2 1107.8L721.4 1107.8L728.4 1110.0L733.2 1113.1L737.5 1117.4L740.1 1121.4L742.8 1127.9L742.8 1140.6L739.7 1148.0L731.9 1156.3L724.0 1160.2L713.9 1161.1L705.7 1158.9L699.5 1155.0L696.5 1151.9L691.2 1143.2L689.9 1132.7L692.6 1122.7L699.5 1113.9ZM509.6 1082.9L547.1 1186.0L568.5 1186.4L569.4 1185.5L589.5 1130.1L591.7 1132.3L608.3 1176.8L610.9 1186.0L633.2 1186.0L649.8 1139.3L657.2 1120.9L663.3 1102.1L668.5 1089.9L670.3 1082.9L641.0 1083.4L621.8 1142.3L620.1 1141.4L599.5 1083.8L580.8 1083.8L565.5 1124.9L560.2 1141.4L558.9 1142.3L557.6 1140.6L549.3 1113.5L541.9 1093.4L539.3 1083.4ZM480.3 1082.9L480.3 1186.0L507.0 1186.4L507.8 1185.5L507.4 1082.9ZM674.2 1098.2L668.1 1107.8L664.2 1117.9L662.4 1127.9L662.9 1144.9L666.8 1158.0L671.6 1166.8L680.8 1176.8L690.8 1183.4L702.6 1187.3L716.6 1187.7L725.7 1186.0L734.0 1182.1L741.5 1175.5L742.8 1176.4L742.8 1185.1L743.6 1186.0L770.3 1186.0L771.2 1083.8L770.3 1082.5L743.2 1082.5L742.8 1092.1L741.5 1093.0L733.2 1085.6L727.5 1082.9L717.4 1080.3L707.0 1080.3L695.6 1082.9L689.9 1085.6L680.8 1091.7ZM492.6 1034.0L485.1 1036.2L480.3 1040.6L477.7 1046.3L477.7 1055.0L480.3 1060.2L484.3 1064.2L491.2 1066.8L496.1 1066.8L502.6 1064.6L506.1 1061.5L509.2 1056.3L510.0 1048.9L507.4 1041.5L503.9 1037.5L499.1 1034.9ZM388.2 1032.3L373.8 1034.9L359.8 1040.1L346.7 1048.4L333.6 1061.5L326.2 1072.9L319.6 1089.0L317.0 1103.0L317.0 1119.6L320.9 1137.5L325.8 1148.4L334.9 1162.4L347.6 1174.6L362.4 1183.4L373.3 1187.3L387.8 1189.9L404.8 1189.9L419.2 1187.3L432.7 1182.1L444.5 1174.6L456.8 1162.0L464.6 1148.0L468.5 1135.8L470.7 1120.0L470.7 1104.8L469.9 1100.4L396.9 1100.4L396.9 1127.5L439.3 1127.9L439.7 1129.7L438.4 1134.5L433.6 1143.6L426.2 1151.5L419.2 1156.3L413.5 1158.9L401.7 1161.5L391.7 1161.5L384.3 1160.2L382.5 1158.9L380.3 1158.9L373.8 1156.3L363.3 1148.9L355.4 1139.7L350.6 1130.1L347.6 1118.3L347.1 1108.7L348.5 1100.0L352.0 1089.5L356.8 1081.6L363.7 1073.8L370.7 1068.5L378.6 1064.6L388.2 1062.0L398.2 1061.5L406.5 1062.4L417.9 1065.9L427.5 1072.0L434.0 1078.1L456.8 1061.5L456.8 1060.2L454.1 1056.7L443.2 1046.7L426.6 1037.5L418.8 1034.9L407.4 1032.7Z"/><path fill="#FF0000" fill-rule="evenodd" d="M795.2 1157.6L788.2 1160.2L784.7 1163.7L782.5 1168.5L782.1 1174.2L783.4 1178.6L787.3 1183.4L792.5 1186.0L799.1 1186.4L803.9 1184.7L808.3 1180.7L810.5 1176.4L810.9 1170.7L810.0 1166.8L806.5 1161.5L802.6 1158.9Z"/></g>
<g id="omogiwa-com-wordmark"><path fill="#401E97" fill-rule="evenodd" d="M1853.6 1122.2L1852.3 1127.9L1852.8 1153.7L1844.5 1154.1L1852.8 1153.7L1852.8 1125.7ZM1910.0 1121.8L1910.9 1125.3L1910.9 1153.7L1911.3 1126.6ZM1374.6 1114.4L1374.6 1154.1L1358.5 1154.1L1358.0 1117.4L1358.0 1154.5L1374.6 1154.1ZM1339.3 1109.1L1335.8 1112.2L1334.0 1117.0L1334.0 1154.1L1317.9 1154.5L1317.9 1119.2L1317.0 1115.2L1317.4 1154.1L1333.6 1154.5L1334.0 1117.4L1336.6 1111.3ZM1686.0 1107.0L1692.5 1107.0L1699.1 1110.0L1702.6 1113.5L1704.7 1118.3L1704.7 1121.4L1705.6 1121.8L1704.7 1128.3L1702.1 1133.1L1696.9 1137.5L1690.8 1139.7L1683.8 1138.8L1678.5 1135.8L1674.6 1131.0L1673.3 1127.0L1672.9 1123.1L1674.6 1115.7L1678.1 1110.9ZM1564.6 1092.5L1567.6 1099.1L1567.6 1101.3L1570.7 1107.4L1572.9 1115.7L1574.6 1118.3L1575.9 1124.0L1577.7 1126.6L1579.0 1132.3L1579.9 1132.7L1582.0 1140.6L1582.9 1141.0L1582.9 1142.8L1587.7 1154.5L1599.9 1154.5L1612.6 1120.0L1613.9 1120.9L1615.7 1125.3L1615.7 1127.0L1617.8 1133.1L1618.7 1133.6L1621.8 1143.6L1622.7 1144.1L1625.7 1154.1L1638.4 1154.5L1661.1 1093.4L1660.6 1092.1L1644.0 1092.5L1631.8 1128.3L1630.5 1127.5L1627.5 1118.7L1627.5 1116.6L1626.6 1116.1L1624.4 1108.3L1622.7 1105.6L1619.2 1093.8L1618.3 1093.0L1607.4 1093.0L1596.0 1125.7L1594.3 1128.3L1593.0 1126.6L1582.5 1093.0L1581.6 1092.1ZM1547.1 1092.1L1547.1 1154.5L1563.3 1154.5L1563.3 1092.5ZM1665.0 1100.0L1660.6 1106.1L1657.6 1113.5L1656.7 1118.3L1656.7 1127.5L1658.9 1136.6L1665.9 1147.6L1675.9 1153.7L1681.2 1155.0L1693.8 1154.5L1698.2 1152.8L1704.3 1147.6L1705.6 1148.9L1704.7 1149.3L1704.7 1150.6L1705.6 1151.1L1704.7 1153.7L1705.6 1154.1L1721.3 1154.1L1721.3 1092.1L1705.6 1092.1L1704.7 1092.5L1705.6 1093.4L1705.6 1095.6L1703.9 1098.2L1699.1 1093.8L1695.1 1092.1L1689.9 1090.8L1683.3 1090.8L1675.1 1093.0ZM1550.2 1064.2L1546.2 1068.1L1545.4 1070.7L1546.2 1077.7L1549.7 1081.2L1552.3 1082.1L1557.6 1082.1L1560.2 1081.2L1564.1 1076.4L1564.1 1069.4L1561.1 1065.0L1558.0 1063.3L1551.9 1063.3L1551.5 1064.2ZM1483.4 1063.3L1482.9 1064.2L1474.6 1066.3L1465.5 1072.5L1459.3 1078.6L1453.2 1088.2L1451.0 1093.8L1451.0 1096.0L1450.2 1096.5L1448.9 1104.8L1448.9 1113.9L1450.2 1122.2L1451.0 1122.7L1451.0 1124.9L1454.1 1131.8L1460.6 1141.4L1471.6 1150.6L1480.7 1154.5L1494.3 1156.7L1506.9 1155.9L1519.2 1151.5L1525.3 1147.6L1531.4 1141.4L1537.5 1131.4L1538.8 1125.3L1539.7 1124.4L1539.7 1120.5L1540.6 1120.0L1540.6 1103.0L1496.9 1103.0L1496.9 1118.7L1522.2 1119.2L1522.7 1121.4L1519.6 1128.3L1511.7 1135.8L1505.2 1138.8L1500.8 1139.7L1492.1 1139.7L1490.8 1138.8L1488.2 1138.8L1479.9 1134.9L1476.8 1132.7L1471.1 1126.2L1467.2 1116.6L1467.2 1102.1L1468.9 1096.9L1472.4 1090.8L1482.0 1082.5L1493.4 1079.0L1498.6 1079.0L1508.2 1081.2L1513.9 1084.2L1519.2 1089.0L1531.4 1080.3L1532.7 1078.6L1523.1 1069.4L1512.2 1064.2L1510.0 1064.2L1509.6 1063.3L1500.0 1062.0L1491.2 1062.0Z"/><path fill="#FF0000" fill-rule="evenodd" d="M1733.1 1136.6L1728.3 1141.0L1727.9 1147.6L1729.6 1150.6L1732.3 1152.8L1737.9 1153.7L1741.9 1151.5L1744.0 1148.9L1744.9 1143.6L1744.0 1140.6L1740.6 1137.1L1737.1 1136.2Z"/><path fill="#1A1A1A" fill-rule="evenodd" d="M1811.3 1114.8L1817.0 1114.4L1823.1 1116.1L1828.3 1120.5L1830.5 1124.4L1831.4 1127.5L1830.5 1136.2L1825.7 1142.8L1820.5 1145.8L1812.2 1146.2L1808.2 1144.9L1803.4 1141.0L1800.4 1135.8L1799.9 1127.9L1802.6 1120.9L1805.6 1117.9ZM1407.4 1107.8L1417.0 1107.8L1417.4 1108.7L1421.3 1110.0L1426.6 1115.2L1428.8 1121.4L1428.8 1126.2L1426.6 1132.3L1421.8 1137.1L1416.1 1139.7L1409.1 1139.7L1404.3 1138.0L1398.6 1133.1L1396.5 1128.3L1396.5 1119.2L1398.6 1114.4L1402.1 1110.9ZM1844.5 1106.5L1844.5 1154.5L1852.3 1154.5L1853.2 1153.7L1853.2 1123.5L1855.4 1119.2L1858.0 1116.6L1863.7 1114.4L1869.8 1114.8L1872.9 1116.6L1876.4 1120.5L1877.7 1126.6L1877.7 1154.1L1886.0 1154.1L1886.4 1123.1L1889.5 1117.9L1891.6 1116.1L1896.9 1114.4L1904.7 1115.7L1909.1 1120.0L1910.9 1126.6L1910.9 1153.7L1914.3 1154.5L1918.7 1154.5L1919.6 1153.7L1918.7 1119.6L1915.7 1113.1L1911.7 1109.1L1904.7 1106.1L1895.6 1106.1L1888.6 1109.1L1883.3 1114.4L1879.0 1109.1L1872.4 1106.1L1863.3 1106.1L1858.0 1108.3L1853.6 1112.2L1852.8 1110.9L1852.8 1107.0ZM1810.9 1106.1L1803.9 1108.3L1799.5 1111.3L1794.7 1116.6L1792.5 1120.5L1790.8 1127.9L1791.6 1138.0L1792.5 1138.4L1792.5 1140.1L1794.7 1144.5L1802.1 1151.5L1809.5 1154.5L1821.3 1154.5L1830.1 1150.6L1837.1 1143.2L1839.2 1138.4L1839.2 1136.2L1840.1 1135.8L1840.1 1125.3L1839.2 1124.9L1839.2 1122.7L1837.1 1117.4L1830.5 1110.4L1827.0 1108.3L1820.0 1106.1ZM1762.8 1107.4L1757.6 1110.4L1752.8 1115.2L1749.7 1120.0L1748.0 1129.7L1748.4 1136.2L1749.7 1140.6L1752.8 1145.8L1756.7 1149.7L1763.7 1153.7L1769.8 1155.0L1775.0 1155.0L1781.6 1153.7L1782.0 1152.8L1786.0 1151.5L1791.2 1146.7L1789.0 1144.1L1784.7 1141.0L1782.9 1143.2L1778.1 1145.8L1768.9 1146.2L1765.0 1144.9L1761.1 1141.9L1758.5 1138.4L1757.1 1134.5L1757.1 1126.6L1758.5 1122.7L1760.6 1119.6L1768.1 1114.8L1776.8 1114.8L1785.1 1119.6L1789.9 1115.7L1790.8 1113.5L1784.2 1108.3L1777.7 1106.1L1767.6 1106.1ZM1403.0 1092.1L1398.2 1093.8L1389.9 1099.1L1384.7 1105.2L1382.5 1109.1L1379.4 1119.2L1379.4 1128.8L1381.6 1136.6L1384.7 1142.3L1389.0 1147.6L1398.2 1153.7L1406.1 1155.9L1418.7 1155.9L1426.2 1153.7L1434.5 1148.4L1438.4 1144.5L1442.3 1138.4L1445.4 1129.2L1445.4 1118.3L1444.5 1117.0L1444.5 1114.4L1443.6 1113.9L1441.4 1107.4L1438.4 1103.0L1429.2 1095.2L1421.8 1092.1L1415.7 1091.2ZM1276.4 1092.5L1276.4 1154.1L1293.4 1154.5L1293.4 1117.4L1294.3 1114.4L1297.8 1110.0L1301.3 1107.8L1303.9 1107.4L1310.9 1107.8L1315.2 1111.3L1317.0 1115.2L1317.4 1154.5L1334.0 1154.5L1334.0 1117.9L1335.3 1113.5L1338.8 1109.6L1341.9 1107.8L1344.9 1107.4L1351.0 1107.8L1354.5 1110.0L1358.0 1116.1L1358.0 1154.5L1375.1 1154.1L1375.1 1115.2L1373.8 1107.4L1370.7 1100.8L1365.0 1095.2L1358.9 1092.1L1346.7 1091.2L1341.9 1092.1L1335.8 1095.2L1330.1 1100.8L1322.7 1093.8L1312.6 1090.8L1303.0 1092.1L1298.2 1094.7L1294.3 1098.7L1293.4 1098.2L1293.4 1092.1ZM1211.3 1081.2L1217.0 1079.9L1227.5 1079.9L1234.9 1082.1L1240.1 1085.1L1245.8 1090.8L1250.6 1099.1L1251.9 1104.3L1251.9 1113.9L1249.7 1121.8L1245.4 1128.3L1240.1 1133.6L1237.1 1135.8L1229.7 1138.8L1220.5 1139.7L1214.4 1138.8L1206.9 1135.8L1199.1 1129.2L1195.2 1123.5L1193.0 1117.9L1193.0 1115.2L1192.1 1114.8L1192.1 1103.9L1193.0 1103.5L1193.0 1100.8L1195.2 1095.2L1202.6 1086.4ZM1210.0 1063.3L1209.6 1064.2L1201.3 1066.3L1192.5 1071.6L1187.3 1075.9L1179.4 1086.4L1175.1 1096.9L1173.8 1105.2L1174.2 1117.4L1176.4 1126.2L1177.3 1126.6L1178.1 1130.1L1181.2 1135.3L1185.5 1141.0L1192.5 1147.6L1198.6 1151.5L1207.8 1155.0L1217.0 1156.7L1226.6 1156.7L1238.0 1154.5L1238.4 1153.7L1242.3 1152.8L1251.5 1147.6L1258.5 1141.0L1264.6 1132.3L1267.6 1125.7L1269.8 1117.9L1269.8 1101.3L1268.5 1095.2L1264.6 1086.0L1258.5 1077.7L1251.5 1071.6L1243.2 1066.3L1228.8 1062.4L1214.8 1062.4L1213.5 1063.3Z"/></g>
<text x="105" y="1413" font-size="25" fill="#111">COLOUR PALETTE</text>
<rect x="106" y="1439" width="244" height="161" rx="14" fill="#401E97" stroke="#E4E0F5" stroke-width="2.5"/><text x="108" y="1636" font-size="21" fill="#111">Deep Purple</text><text x="108" y="1662" font-size="21" font-weight="500" fill="#401E97">#401E97</text><text x="108" y="1681" font-size="15" fill="#6b6785">RGB 64 30 151</text><text x="108" y="1703" font-size="15" fill="#6b6785">Primary</text><rect x="380" y="1439" width="244" height="161" rx="14" fill="#AE61E8" stroke="#E4E0F5" stroke-width="2.5"/><text x="382" y="1636" font-size="21" fill="#111">Light Purple</text><text x="382" y="1662" font-size="21" font-weight="500" fill="#401E97">#AE61E8</text><text x="382" y="1681" font-size="15" fill="#6b6785">RGB 174 97 232</text><text x="382" y="1703" font-size="15" fill="#6b6785">Accent</text><rect x="653" y="1439" width="244" height="161" rx="14" fill="#000000" stroke="#E4E0F5" stroke-width="2.5"/><text x="655" y="1636" font-size="21" fill="#111">Black</text><text x="655" y="1662" font-size="21" font-weight="500" fill="#401E97">#000000</text><text x="655" y="1681" font-size="15" fill="#6b6785">RGB 0 0 0</text><text x="655" y="1703" font-size="15" fill="#6b6785">Core</text><rect x="925" y="1439" width="244" height="161" rx="14" fill="#FFFFFF" stroke="#E4E0F5" stroke-width="2.5"/><text x="927" y="1636" font-size="21" fill="#111">White</text><text x="927" y="1662" font-size="21" font-weight="500" fill="#401E97">#FFFFFF</text><text x="927" y="1681" font-size="15" fill="#6b6785">RGB 255 255 255</text><text x="927" y="1703" font-size="15" fill="#6b6785">Background</text><rect x="1199" y="1439" width="244" height="161" rx="14" fill="#FF0000" stroke="#E4E0F5" stroke-width="2.5"/><text x="1201" y="1636" font-size="21" fill="#111">Red</text><text x="1201" y="1662" font-size="21" font-weight="500" fill="#401E97">#FF0000</text><text x="1201" y="1681" font-size="15" fill="#6b6785">RGB 255 0 0</text><text x="1201" y="1703" font-size="15" fill="#6b6785">Wordmark dot</text>
</svg>